<?xml version="1.0" encoding="utf-8" standalone="no"?>
<!DOCTYPE svg PUBLIC "-//W3C//DTD SVG 1.1//EN"
  "http://www.w3.org/Graphics/SVG/1.1/DTD/svg11.dtd">
<svg xmlns:xlink="http://www.w3.org/1999/xlink" width="384.567656pt" height="239.899115pt" viewBox="0 0 384.567656 239.899115" xmlns="http://www.w3.org/2000/svg" version="1.1">
 <metadata>
  <rdf:RDF xmlns:dc="http://purl.org/dc/elements/1.1/" xmlns:cc="http://creativecommons.org/ns#" xmlns:rdf="http://www.w3.org/1999/02/22-rdf-syntax-ns#">
   <cc:Work>
    <dc:type rdf:resource="http://purl.org/dc/dcmitype/StillImage"/>
    <dc:date>2026-10-08T22:28:14.243465</dc:date>
    <dc:format>image/svg+xml</dc:format>
    <dc:creator>
     <cc:Agent>
      <dc:title>Matplotlib v3.11.2, https://matplotlib.org/</dc:title>
     </cc:Agent>
    </dc:creator>
   </cc:Work>
  </rdf:RDF>
 </metadata>
 <defs>
  <style type="text/css">*{stroke-linejoin: round; stroke-linecap: butt}</style>
 </defs>
 <g id="figure_1">
  <g id="patch_1">
   <path d="M 0 239.899115 
L 384.567656 239.899115 
L 384.567656 0 
L 0 0 
z
" style="fill: #ffffff"/>
  </g>
  <g id="axes_1">
   <g id="patch_2">
    <path d="M 50.313047 212.875658 
L 377.367656 212.875658 
L 377.367656 7.307109 
L 50.313047 7.307109 
z
" style="fill: #ffffff"/>
   </g>
   <g id="matplotlib.axis_1">
    <g id="xtick_1">
     <g id="text_1">
      <!-- adbc -->
      <g style="fill: #262626" transform="translate(79.269326 230.383959) scale(0.11 -0.11)">
       <defs>
        <path id="ArialMT-44" d="M 2588 409 
Q 2275 144 1986 34 
Q 1697 -75 1366 -75 
Q 819 -75 525 192 
Q 231 459 231 875 
Q 231 1119 342 1320 
Q 453 1522 633 1644 
Q 813 1766 1038 1828 
Q 1203 1872 1538 1913 
Q 2219 1994 2541 2106 
Q 2544 2222 2544 2253 
Q 2544 2597 2384 2738 
Q 2169 2928 1744 2928 
Q 1347 2928 1158 2789 
Q 969 2650 878 2297 
L 328 2372 
Q 403 2725 575 2942 
Q 747 3159 1072 3276 
Q 1397 3394 1825 3394 
Q 2250 3394 2515 3294 
Q 2781 3194 2906 3042 
Q 3031 2891 3081 2659 
Q 3109 2516 3109 2141 
L 3109 1391 
Q 3109 606 3145 398 
Q 3181 191 3288 0 
L 2700 0 
Q 2613 175 2588 409 
z
M 2541 1666 
Q 2234 1541 1622 1453 
Q 1275 1403 1131 1340 
Q 988 1278 909 1158 
Q 831 1038 831 891 
Q 831 666 1001 516 
Q 1172 366 1500 366 
Q 1825 366 2078 508 
Q 2331 650 2450 897 
Q 2541 1088 2541 1459 
L 2541 1666 
z
" transform="scale(0.015625)"/>
        <path id="ArialMT-47" d="M 2575 0 
L 2575 419 
Q 2259 -75 1647 -75 
Q 1250 -75 917 144 
Q 584 363 401 755 
Q 219 1147 219 1656 
Q 219 2153 384 2558 
Q 550 2963 881 3178 
Q 1213 3394 1622 3394 
Q 1922 3394 2156 3267 
Q 2391 3141 2538 2938 
L 2538 4581 
L 3097 4581 
L 3097 0 
L 2575 0 
z
M 797 1656 
Q 797 1019 1065 703 
Q 1334 388 1700 388 
Q 2069 388 2326 689 
Q 2584 991 2584 1609 
Q 2584 2291 2321 2609 
Q 2059 2928 1675 2928 
Q 1300 2928 1048 2622 
Q 797 2316 797 1656 
z
" transform="scale(0.015625)"/>
        <path id="ArialMT-45" d="M 941 0 
L 419 0 
L 419 4581 
L 981 4581 
L 981 2947 
Q 1338 3394 1891 3394 
Q 2197 3394 2470 3270 
Q 2744 3147 2920 2923 
Q 3097 2700 3197 2384 
Q 3297 2069 3297 1709 
Q 3297 856 2875 390 
Q 2453 -75 1863 -75 
Q 1275 -75 941 416 
L 941 0 
z
M 934 1684 
Q 934 1088 1097 822 
Q 1363 388 1816 388 
Q 2184 388 2453 708 
Q 2722 1028 2722 1663 
Q 2722 2313 2464 2622 
Q 2206 2931 1841 2931 
Q 1472 2931 1203 2611 
Q 934 2291 934 1684 
z
" transform="scale(0.015625)"/>
        <path id="ArialMT-46" d="M 2588 1216 
L 3141 1144 
Q 3050 572 2676 248 
Q 2303 -75 1759 -75 
Q 1078 -75 664 370 
Q 250 816 250 1647 
Q 250 2184 428 2587 
Q 606 2991 970 3192 
Q 1334 3394 1763 3394 
Q 2303 3394 2647 3120 
Q 2991 2847 3088 2344 
L 2541 2259 
Q 2463 2594 2264 2762 
Q 2066 2931 1784 2931 
Q 1359 2931 1093 2626 
Q 828 2322 828 1663 
Q 828 994 1084 691 
Q 1341 388 1753 388 
Q 2084 388 2306 591 
Q 2528 794 2588 1216 
z
" transform="scale(0.015625)"/>
       </defs>
       <use xlink:href="#ArialMT-44"/>
       <use xlink:href="#ArialMT-47" transform="translate(55.609375 0)"/>
       <use xlink:href="#ArialMT-45" transform="translate(111.21875 0)"/>
       <use xlink:href="#ArialMT-46" transform="translate(166.828125 0)"/>
      </g>
     </g>
    </g>
    <g id="xtick_2">
     <g id="text_2">
      <!-- duckdb -->
      <g style="fill: #262626" transform="translate(155.224463 230.383959) scale(0.11 -0.11)">
       <defs>
        <path id="ArialMT-58" d="M 2597 0 
L 2597 488 
Q 2209 -75 1544 -75 
Q 1250 -75 995 37 
Q 741 150 617 320 
Q 494 491 444 738 
Q 409 903 409 1263 
L 409 3319 
L 972 3319 
L 972 1478 
Q 972 1038 1006 884 
Q 1059 663 1231 536 
Q 1403 409 1656 409 
Q 1909 409 2131 539 
Q 2353 669 2445 892 
Q 2538 1116 2538 1541 
L 2538 3319 
L 3100 3319 
L 3100 0 
L 2597 0 
z
" transform="scale(0.015625)"/>
        <path id="ArialMT-4e" d="M 425 0 
L 425 4581 
L 988 4581 
L 988 1969 
L 2319 3319 
L 3047 3319 
L 1778 2088 
L 3175 0 
L 2481 0 
L 1384 1697 
L 988 1316 
L 988 0 
L 425 0 
z
" transform="scale(0.015625)"/>
       </defs>
       <use xlink:href="#ArialMT-47"/>
       <use xlink:href="#ArialMT-58" transform="translate(55.609375 0)"/>
       <use xlink:href="#ArialMT-46" transform="translate(111.21875 0)"/>
       <use xlink:href="#ArialMT-4e" transform="translate(161.21875 0)"/>
       <use xlink:href="#ArialMT-47" transform="translate(211.21875 0)"/>
       <use xlink:href="#ArialMT-45" transform="translate(266.828125 0)"/>
      </g>
     </g>
    </g>
    <g id="xtick_3">
     <g id="text_3">
      <!-- pg_parquet -->
      <g style="fill: #262626" transform="translate(226.894756 230.383959) scale(0.11 -0.11)">
       <defs>
        <path id="ArialMT-53" d="M 422 -1272 
L 422 3319 
L 934 3319 
L 934 2888 
Q 1116 3141 1344 3267 
Q 1572 3394 1897 3394 
Q 2322 3394 2647 3175 
Q 2972 2956 3137 2557 
Q 3303 2159 3303 1684 
Q 3303 1175 3120 767 
Q 2938 359 2589 142 
Q 2241 -75 1856 -75 
Q 1575 -75 1351 44 
Q 1128 163 984 344 
L 984 -1272 
L 422 -1272 
z
M 931 1641 
Q 931 1000 1190 694 
Q 1450 388 1819 388 
Q 2194 388 2461 705 
Q 2728 1022 2728 1688 
Q 2728 2322 2467 2637 
Q 2206 2953 1844 2953 
Q 1484 2953 1207 2617 
Q 931 2281 931 1641 
z
" transform="scale(0.015625)"/>
        <path id="ArialMT-4a" d="M 319 -275 
L 866 -356 
Q 900 -609 1056 -725 
Q 1266 -881 1628 -881 
Q 2019 -881 2231 -725 
Q 2444 -569 2519 -288 
Q 2563 -116 2559 434 
Q 2191 0 1641 0 
Q 956 0 581 494 
Q 206 988 206 1678 
Q 206 2153 378 2554 
Q 550 2956 876 3175 
Q 1203 3394 1644 3394 
Q 2231 3394 2613 2919 
L 2613 3319 
L 3131 3319 
L 3131 450 
Q 3131 -325 2973 -648 
Q 2816 -972 2473 -1159 
Q 2131 -1347 1631 -1347 
Q 1038 -1347 672 -1080 
Q 306 -813 319 -275 
z
M 784 1719 
Q 784 1066 1043 766 
Q 1303 466 1694 466 
Q 2081 466 2343 764 
Q 2606 1063 2606 1700 
Q 2606 2309 2336 2618 
Q 2066 2928 1684 2928 
Q 1309 2928 1046 2623 
Q 784 2319 784 1719 
z
" transform="scale(0.015625)"/>
        <path id="ArialMT-42" d="M -97 -1272 
L -97 -866 
L 3631 -866 
L 3631 -1272 
L -97 -1272 
z
" transform="scale(0.015625)"/>
        <path id="ArialMT-55" d="M 416 0 
L 416 3319 
L 922 3319 
L 922 2816 
Q 1116 3169 1280 3281 
Q 1444 3394 1641 3394 
Q 1925 3394 2219 3213 
L 2025 2691 
Q 1819 2813 1613 2813 
Q 1428 2813 1281 2702 
Q 1134 2591 1072 2394 
Q 978 2094 978 1738 
L 978 0 
L 416 0 
z
" transform="scale(0.015625)"/>
        <path id="ArialMT-54" d="M 2538 -1272 
L 2538 353 
Q 2406 169 2170 47 
Q 1934 -75 1669 -75 
Q 1078 -75 651 397 
Q 225 869 225 1691 
Q 225 2191 398 2587 
Q 572 2984 901 3189 
Q 1231 3394 1625 3394 
Q 2241 3394 2594 2875 
L 2594 3319 
L 3100 3319 
L 3100 -1272 
L 2538 -1272 
z
M 803 1669 
Q 803 1028 1072 708 
Q 1341 388 1716 388 
Q 2075 388 2334 692 
Q 2594 997 2594 1619 
Q 2594 2281 2320 2615 
Q 2047 2950 1678 2950 
Q 1313 2950 1058 2639 
Q 803 2328 803 1669 
z
" transform="scale(0.015625)"/>
        <path id="ArialMT-48" d="M 2694 1069 
L 3275 997 
Q 3138 488 2766 206 
Q 2394 -75 1816 -75 
Q 1088 -75 661 373 
Q 234 822 234 1631 
Q 234 2469 665 2931 
Q 1097 3394 1784 3394 
Q 2450 3394 2872 2941 
Q 3294 2488 3294 1666 
Q 3294 1616 3291 1516 
L 816 1516 
Q 847 969 1125 678 
Q 1403 388 1819 388 
Q 2128 388 2347 550 
Q 2566 713 2694 1069 
z
M 847 1978 
L 2700 1978 
Q 2663 2397 2488 2606 
Q 2219 2931 1791 2931 
Q 1403 2931 1139 2672 
Q 875 2413 847 1978 
z
" transform="scale(0.015625)"/>
        <path id="ArialMT-57" d="M 1650 503 
L 1731 6 
Q 1494 -44 1306 -44 
Q 1000 -44 831 53 
Q 663 150 594 308 
Q 525 466 525 972 
L 525 2881 
L 113 2881 
L 113 3319 
L 525 3319 
L 525 4141 
L 1084 4478 
L 1084 3319 
L 1650 3319 
L 1650 2881 
L 1084 2881 
L 1084 941 
Q 1084 700 1114 631 
Q 1144 563 1211 522 
Q 1278 481 1403 481 
Q 1497 481 1650 503 
z
" transform="scale(0.015625)"/>
       </defs>
       <use xlink:href="#ArialMT-53"/>
       <use xlink:href="#ArialMT-4a" transform="translate(55.609375 0)"/>
       <use xlink:href="#ArialMT-42" transform="translate(111.21875 0)"/>
       <use xlink:href="#ArialMT-53" transform="translate(166.828125 0)"/>
       <use xlink:href="#ArialMT-44" transform="translate(222.4375 0)"/>
       <use xlink:href="#ArialMT-55" transform="translate(278.046875 0)"/>
       <use xlink:href="#ArialMT-54" transform="translate(311.34375 0)"/>
       <use xlink:href="#ArialMT-58" transform="translate(366.953125 0)"/>
       <use xlink:href="#ArialMT-48" transform="translate(422.5625 0)"/>
       <use xlink:href="#ArialMT-57" transform="translate(478.171875 0)"/>
      </g>
     </g>
    </g>
    <g id="xtick_4">
     <g id="text_4">
      <!-- pg_duckdb -->
      <g style="fill: #262626" transform="translate(309.576221 230.383959) scale(0.11 -0.11)">
       <use xlink:href="#ArialMT-53"/>
       <use xlink:href="#ArialMT-4a" transform="translate(55.609375 0)"/>
       <use xlink:href="#ArialMT-42" transform="translate(111.21875 0)"/>
       <use xlink:href="#ArialMT-47" transform="translate(166.828125 0)"/>
       <use xlink:href="#ArialMT-58" transform="translate(222.4375 0)"/>
       <use xlink:href="#ArialMT-46" transform="translate(278.046875 0)"/>
       <use xlink:href="#ArialMT-4e" transform="translate(328.046875 0)"/>
       <use xlink:href="#ArialMT-47" transform="translate(378.046875 0)"/>
       <use xlink:href="#ArialMT-45" transform="translate(433.65625 0)"/>
      </g>
     </g>
    </g>
   </g>
   <g id="matplotlib.axis_2">
    <g id="ytick_1">
     <g id="line2d_1">
      <path d="M 50.313047 212.875658 
L 377.367656 212.875658 
" clip-path="url(#p34c1b0f082)" style="fill: none; stroke: #cccccc; stroke-linecap: round"/>
     </g>
     <g id="text_5">
      <!-- 0 -->
      <g style="fill: #262626" transform="translate(34.696016 216.879808) scale(0.11 -0.11)">
       <defs>
        <path id="ArialMT-13" d="M 266 2259 
Q 266 3072 433 3567 
Q 600 4063 929 4331 
Q 1259 4600 1759 4600 
Q 2128 4600 2406 4451 
Q 2684 4303 2865 4023 
Q 3047 3744 3150 3342 
Q 3253 2941 3253 2259 
Q 3253 1453 3087 958 
Q 2922 463 2592 192 
Q 2263 -78 1759 -78 
Q 1097 -78 719 397 
Q 266 969 266 2259 
z
M 844 2259 
Q 844 1131 1108 757 
Q 1372 384 1759 384 
Q 2147 384 2411 759 
Q 2675 1134 2675 2259 
Q 2675 3391 2411 3762 
Q 2147 4134 1753 4134 
Q 1366 4134 1134 3806 
Q 844 3388 844 2259 
z
" transform="scale(0.015625)"/>
       </defs>
       <use xlink:href="#ArialMT-13"/>
      </g>
     </g>
    </g>
    <g id="ytick_2">
     <g id="line2d_2">
      <path d="M 50.313047 187.666719 
L 377.367656 187.666719 
" clip-path="url(#p34c1b0f082)" style="fill: none; stroke: #cccccc; stroke-linecap: round"/>
     </g>
     <g id="text_6">
      <!-- 25 -->
      <g style="fill: #262626" transform="translate(28.578984 191.67087) scale(0.11 -0.11)">
       <defs>
        <path id="ArialMT-15" d="M 3222 541 
L 3222 0 
L 194 0 
Q 188 203 259 391 
Q 375 700 629 1000 
Q 884 1300 1366 1694 
Q 2113 2306 2375 2664 
Q 2638 3022 2638 3341 
Q 2638 3675 2398 3904 
Q 2159 4134 1775 4134 
Q 1369 4134 1125 3890 
Q 881 3647 878 3216 
L 300 3275 
Q 359 3922 746 4261 
Q 1134 4600 1788 4600 
Q 2447 4600 2831 4234 
Q 3216 3869 3216 3328 
Q 3216 3053 3103 2787 
Q 2991 2522 2730 2228 
Q 2469 1934 1863 1422 
Q 1356 997 1212 845 
Q 1069 694 975 541 
L 3222 541 
z
" transform="scale(0.015625)"/>
        <path id="ArialMT-18" d="M 266 1200 
L 856 1250 
Q 922 819 1161 601 
Q 1400 384 1738 384 
Q 2144 384 2425 690 
Q 2706 997 2706 1503 
Q 2706 1984 2436 2262 
Q 2166 2541 1728 2541 
Q 1456 2541 1237 2417 
Q 1019 2294 894 2097 
L 366 2166 
L 809 4519 
L 3088 4519 
L 3088 3981 
L 1259 3981 
L 1013 2750 
Q 1425 3038 1878 3038 
Q 2478 3038 2890 2622 
Q 3303 2206 3303 1553 
Q 3303 931 2941 478 
Q 2500 -78 1738 -78 
Q 1113 -78 717 272 
Q 322 622 266 1200 
z
" transform="scale(0.015625)"/>
       </defs>
       <use xlink:href="#ArialMT-15"/>
       <use xlink:href="#ArialMT-18" transform="translate(55.609375 0)"/>
      </g>
     </g>
    </g>
    <g id="ytick_3">
     <g id="line2d_3">
      <path d="M 50.313047 162.457781 
L 377.367656 162.457781 
" clip-path="url(#p34c1b0f082)" style="fill: none; stroke: #cccccc; stroke-linecap: round"/>
     </g>
     <g id="text_7">
      <!-- 50 -->
      <g style="fill: #262626" transform="translate(28.578984 166.461931) scale(0.11 -0.11)">
       <use xlink:href="#ArialMT-18"/>
       <use xlink:href="#ArialMT-13" transform="translate(55.609375 0)"/>
      </g>
     </g>
    </g>
    <g id="ytick_4">
     <g id="line2d_4">
      <path d="M 50.313047 137.248843 
L 377.367656 137.248843 
" clip-path="url(#p34c1b0f082)" style="fill: none; stroke: #cccccc; stroke-linecap: round"/>
     </g>
     <g id="text_8">
      <!-- 75 -->
      <g style="fill: #262626" transform="translate(28.578984 141.252993) scale(0.11 -0.11)">
       <defs>
        <path id="ArialMT-1a" d="M 303 3981 
L 303 4522 
L 3269 4522 
L 3269 4084 
Q 2831 3619 2401 2847 
Q 1972 2075 1738 1259 
Q 1569 684 1522 0 
L 944 0 
Q 953 541 1156 1306 
Q 1359 2072 1739 2783 
Q 2119 3494 2547 3981 
L 303 3981 
z
" transform="scale(0.015625)"/>
       </defs>
       <use xlink:href="#ArialMT-1a"/>
       <use xlink:href="#ArialMT-18" transform="translate(55.609375 0)"/>
      </g>
     </g>
    </g>
    <g id="ytick_5">
     <g id="line2d_5">
      <path d="M 50.313047 112.039904 
L 377.367656 112.039904 
" clip-path="url(#p34c1b0f082)" style="fill: none; stroke: #cccccc; stroke-linecap: round"/>
     </g>
     <g id="text_9">
      <!-- 100 -->
      <g style="fill: #262626" transform="translate(22.461953 116.044055) scale(0.11 -0.11)">
       <defs>
        <path id="ArialMT-14" d="M 2384 0 
L 1822 0 
L 1822 3584 
Q 1619 3391 1289 3197 
Q 959 3003 697 2906 
L 697 3450 
Q 1169 3672 1522 3987 
Q 1875 4303 2022 4600 
L 2384 4600 
L 2384 0 
z
" transform="scale(0.015625)"/>
       </defs>
       <use xlink:href="#ArialMT-14"/>
       <use xlink:href="#ArialMT-13" transform="translate(55.609375 0)"/>
       <use xlink:href="#ArialMT-13" transform="translate(111.21875 0)"/>
      </g>
     </g>
    </g>
    <g id="ytick_6">
     <g id="line2d_6">
      <path d="M 50.313047 86.830966 
L 377.367656 86.830966 
" clip-path="url(#p34c1b0f082)" style="fill: none; stroke: #cccccc; stroke-linecap: round"/>
     </g>
     <g id="text_10">
      <!-- 125 -->
      <g style="fill: #262626" transform="translate(22.461953 90.835116) scale(0.11 -0.11)">
       <use xlink:href="#ArialMT-14"/>
       <use xlink:href="#ArialMT-15" transform="translate(55.609375 0)"/>
       <use xlink:href="#ArialMT-18" transform="translate(111.21875 0)"/>
      </g>
     </g>
    </g>
    <g id="ytick_7">
     <g id="line2d_7">
      <path d="M 50.313047 61.622027 
L 377.367656 61.622027 
" clip-path="url(#p34c1b0f082)" style="fill: none; stroke: #cccccc; stroke-linecap: round"/>
     </g>
     <g id="text_11">
      <!-- 150 -->
      <g style="fill: #262626" transform="translate(22.461953 65.626178) scale(0.11 -0.11)">
       <use xlink:href="#ArialMT-14"/>
       <use xlink:href="#ArialMT-18" transform="translate(55.609375 0)"/>
       <use xlink:href="#ArialMT-13" transform="translate(111.21875 0)"/>
      </g>
     </g>
    </g>
    <g id="ytick_8">
     <g id="line2d_8">
      <path d="M 50.313047 36.413089 
L 377.367656 36.413089 
" clip-path="url(#p34c1b0f082)" style="fill: none; stroke: #cccccc; stroke-linecap: round"/>
     </g>
     <g id="text_12">
      <!-- 175 -->
      <g style="fill: #262626" transform="translate(22.461953 40.417239) scale(0.11 -0.11)">
       <use xlink:href="#ArialMT-14"/>
       <use xlink:href="#ArialMT-1a" transform="translate(55.609375 0)"/>
       <use xlink:href="#ArialMT-18" transform="translate(111.21875 0)"/>
      </g>
     </g>
    </g>
    <g id="ytick_9">
     <g id="line2d_9">
      <path d="M 50.313047 11.20415 
L 377.367656 11.20415 
" clip-path="url(#p34c1b0f082)" style="fill: none; stroke: #cccccc; stroke-linecap: round"/>
     </g>
     <g id="text_13">
      <!-- 200 -->
      <g style="fill: #262626" transform="translate(22.461953 15.208301) scale(0.11 -0.11)">
       <use xlink:href="#ArialMT-15"/>
       <use xlink:href="#ArialMT-13" transform="translate(55.609375 0)"/>
       <use xlink:href="#ArialMT-13" transform="translate(111.21875 0)"/>
      </g>
     </g>
    </g>
    <g id="text_14">
     <!-- Run time (seconds) -->
     <g style="fill: #262626" transform="translate(15.936328 162.107634) rotate(-90) scale(0.12 -0.12)">
      <defs>
       <path id="ArialMT-35" d="M 503 0 
L 503 4581 
L 2534 4581 
Q 3147 4581 3465 4457 
Q 3784 4334 3975 4021 
Q 4166 3709 4166 3331 
Q 4166 2844 3850 2509 
Q 3534 2175 2875 2084 
Q 3116 1969 3241 1856 
Q 3506 1613 3744 1247 
L 4541 0 
L 3778 0 
L 3172 953 
Q 2906 1366 2734 1584 
Q 2563 1803 2427 1890 
Q 2291 1978 2150 2013 
Q 2047 2034 1813 2034 
L 1109 2034 
L 1109 0 
L 503 0 
z
M 1109 2559 
L 2413 2559 
Q 2828 2559 3062 2645 
Q 3297 2731 3419 2920 
Q 3541 3109 3541 3331 
Q 3541 3656 3305 3865 
Q 3069 4075 2559 4075 
L 1109 4075 
L 1109 2559 
z
" transform="scale(0.015625)"/>
       <path id="ArialMT-51" d="M 422 0 
L 422 3319 
L 928 3319 
L 928 2847 
Q 1294 3394 1984 3394 
Q 2284 3394 2536 3286 
Q 2788 3178 2913 3003 
Q 3038 2828 3088 2588 
Q 3119 2431 3119 2041 
L 3119 0 
L 2556 0 
L 2556 2019 
Q 2556 2363 2490 2533 
Q 2425 2703 2258 2804 
Q 2091 2906 1866 2906 
Q 1506 2906 1245 2678 
Q 984 2450 984 1813 
L 984 0 
L 422 0 
z
" transform="scale(0.015625)"/>
       <path id="ArialMT-3" transform="scale(0.015625)"/>
       <path id="ArialMT-4c" d="M 425 3934 
L 425 4581 
L 988 4581 
L 988 3934 
L 425 3934 
z
M 425 0 
L 425 3319 
L 988 3319 
L 988 0 
L 425 0 
z
" transform="scale(0.015625)"/>
       <path id="ArialMT-50" d="M 422 0 
L 422 3319 
L 925 3319 
L 925 2853 
Q 1081 3097 1340 3245 
Q 1600 3394 1931 3394 
Q 2300 3394 2536 3241 
Q 2772 3088 2869 2813 
Q 3263 3394 3894 3394 
Q 4388 3394 4653 3120 
Q 4919 2847 4919 2278 
L 4919 0 
L 4359 0 
L 4359 2091 
Q 4359 2428 4304 2576 
Q 4250 2725 4106 2815 
Q 3963 2906 3769 2906 
Q 3419 2906 3187 2673 
Q 2956 2441 2956 1928 
L 2956 0 
L 2394 0 
L 2394 2156 
Q 2394 2531 2256 2718 
Q 2119 2906 1806 2906 
Q 1569 2906 1367 2781 
Q 1166 2656 1075 2415 
Q 984 2175 984 1722 
L 984 0 
L 422 0 
z
" transform="scale(0.015625)"/>
       <path id="ArialMT-b" d="M 1497 -1347 
Q 1031 -759 709 28 
Q 388 816 388 1659 
Q 388 2403 628 3084 
Q 909 3875 1497 4659 
L 1900 4659 
Q 1522 4009 1400 3731 
Q 1209 3300 1100 2831 
Q 966 2247 966 1656 
Q 966 153 1900 -1347 
L 1497 -1347 
z
" transform="scale(0.015625)"/>
       <path id="ArialMT-56" d="M 197 991 
L 753 1078 
Q 800 744 1014 566 
Q 1228 388 1613 388 
Q 2000 388 2187 545 
Q 2375 703 2375 916 
Q 2375 1106 2209 1216 
Q 2094 1291 1634 1406 
Q 1016 1563 777 1677 
Q 538 1791 414 1992 
Q 291 2194 291 2438 
Q 291 2659 392 2848 
Q 494 3038 669 3163 
Q 800 3259 1026 3326 
Q 1253 3394 1513 3394 
Q 1903 3394 2198 3281 
Q 2494 3169 2634 2976 
Q 2775 2784 2828 2463 
L 2278 2388 
Q 2241 2644 2061 2787 
Q 1881 2931 1553 2931 
Q 1166 2931 1000 2803 
Q 834 2675 834 2503 
Q 834 2394 903 2306 
Q 972 2216 1119 2156 
Q 1203 2125 1616 2013 
Q 2213 1853 2448 1751 
Q 2684 1650 2818 1456 
Q 2953 1263 2953 975 
Q 2953 694 2789 445 
Q 2625 197 2315 61 
Q 2006 -75 1616 -75 
Q 969 -75 630 194 
Q 291 463 197 991 
z
" transform="scale(0.015625)"/>
       <path id="ArialMT-52" d="M 213 1659 
Q 213 2581 725 3025 
Q 1153 3394 1769 3394 
Q 2453 3394 2887 2945 
Q 3322 2497 3322 1706 
Q 3322 1066 3130 698 
Q 2938 331 2570 128 
Q 2203 -75 1769 -75 
Q 1072 -75 642 372 
Q 213 819 213 1659 
z
M 791 1659 
Q 791 1022 1069 705 
Q 1347 388 1769 388 
Q 2188 388 2466 706 
Q 2744 1025 2744 1678 
Q 2744 2294 2464 2611 
Q 2184 2928 1769 2928 
Q 1347 2928 1069 2612 
Q 791 2297 791 1659 
z
" transform="scale(0.015625)"/>
       <path id="ArialMT-c" d="M 791 -1347 
L 388 -1347 
Q 1322 153 1322 1656 
Q 1322 2244 1188 2822 
Q 1081 3291 891 3722 
Q 769 4003 388 4659 
L 791 4659 
Q 1378 3875 1659 3084 
Q 1900 2403 1900 1659 
Q 1900 816 1576 28 
Q 1253 -759 791 -1347 
z
" transform="scale(0.015625)"/>
      </defs>
      <use xlink:href="#ArialMT-35"/>
      <use xlink:href="#ArialMT-58" transform="translate(72.21875 0)"/>
      <use xlink:href="#ArialMT-51" transform="translate(127.828125 0)"/>
      <use xlink:href="#ArialMT-3" transform="translate(183.4375 0)"/>
      <use xlink:href="#ArialMT-57" transform="translate(211.21875 0)"/>
      <use xlink:href="#ArialMT-4c" transform="translate(239 0)"/>
      <use xlink:href="#ArialMT-50" transform="translate(261.21875 0)"/>
      <use xlink:href="#ArialMT-48" transform="translate(344.515625 0)"/>
      <use xlink:href="#ArialMT-3" transform="translate(400.125 0)"/>
      <use xlink:href="#ArialMT-b" transform="translate(427.90625 0)"/>
      <use xlink:href="#ArialMT-56" transform="translate(461.203125 0)"/>
      <use xlink:href="#ArialMT-48" transform="translate(511.203125 0)"/>
      <use xlink:href="#ArialMT-46" transform="translate(566.8125 0)"/>
      <use xlink:href="#ArialMT-52" transform="translate(616.8125 0)"/>
      <use xlink:href="#ArialMT-51" transform="translate(672.421875 0)"/>
      <use xlink:href="#ArialMT-47" transform="translate(728.03125 0)"/>
      <use xlink:href="#ArialMT-56" transform="translate(783.640625 0)"/>
      <use xlink:href="#ArialMT-c" transform="translate(833.640625 0)"/>
     </g>
    </g>
   </g>
   <g id="patch_3">
    <path d="M 58.489412 212.875658 
L 123.900334 212.875658 
L 123.900334 155.309249 
L 58.489412 155.309249 
z
" clip-path="url(#p34c1b0f082)" style="fill: #4a4a4a; stroke: #ffffff; stroke-linejoin: miter"/>
   </g>
   <g id="patch_4">
    <path d="M 140.253064 212.875658 
L 205.663986 212.875658 
L 205.663986 186.790922 
L 140.253064 186.790922 
z
" clip-path="url(#p34c1b0f082)" style="fill: #e1bf5e; stroke: #ffffff; stroke-linejoin: miter"/>
   </g>
   <g id="patch_5">
    <path d="M 222.016717 212.875658 
L 287.427639 212.875658 
L 287.427639 17.096088 
L 222.016717 17.096088 
z
" clip-path="url(#p34c1b0f082)" style="fill: #3274a1; stroke: #ffffff; stroke-linejoin: miter"/>
   </g>
   <g id="patch_6">
    <path d="M 303.780369 212.875658 
L 369.191291 212.875658 
L 369.191291 194.329659 
L 303.780369 194.329659 
z
" clip-path="url(#p34c1b0f082)" style="fill: #458465; stroke: #ffffff; stroke-linejoin: miter"/>
   </g>
   <g id="line2d_10">
    <path clip-path="url(#p34c1b0f082)" style="fill: none; stroke: #424242; stroke-width: 2.25; stroke-linecap: round"/>
   </g>
   <g id="line2d_11">
    <path clip-path="url(#p34c1b0f082)" style="fill: none; stroke: #424242; stroke-width: 2.25; stroke-linecap: round"/>
   </g>
   <g id="line2d_12">
    <path clip-path="url(#p34c1b0f082)" style="fill: none; stroke: #424242; stroke-width: 2.25; stroke-linecap: round"/>
   </g>
   <g id="line2d_13">
    <path clip-path="url(#p34c1b0f082)" style="fill: none; stroke: #424242; stroke-width: 2.25; stroke-linecap: round"/>
   </g>
   <g id="patch_7">
    <path d="M 50.313047 212.875658 
L 50.313047 7.307109 
" style="fill: none; stroke: #cccccc; stroke-width: 1.25; stroke-linejoin: miter; stroke-linecap: square"/>
   </g>
   <g id="patch_8">
    <path d="M 377.367656 212.875658 
L 377.367656 7.307109 
" style="fill: none; stroke: #cccccc; stroke-width: 1.25; stroke-linejoin: miter; stroke-linecap: square"/>
   </g>
   <g id="patch_9">
    <path d="M 50.313047 212.875658 
L 377.367656 212.875658 
" style="fill: none; stroke: #cccccc; stroke-width: 1.25; stroke-linejoin: miter; stroke-linecap: square"/>
   </g>
   <g id="patch_10">
    <path d="M 50.313047 7.307109 
L 377.367656 7.307109 
" style="fill: none; stroke: #cccccc; stroke-width: 1.25; stroke-linejoin: miter; stroke-linecap: square"/>
   </g>
  </g>
 </g>
 <defs>
  <clipPath id="p34c1b0f082">
   <rect x="50.313047" y="7.307109" width="327.054609" height="205.568549"/>
  </clipPath>
 </defs>
</svg>
